<svg xmlns="http://www.w3.org/2000/svg" xmlns:xlink="http://www.w3.org/1999/xlink" width="403" zoomAndPan="magnify" viewBox="0 0 302.25 282.749996" height="377" preserveAspectRatio="xMidYMid meet" version="1.0"><defs><g/><clipPath id="63b1a0500d"><path d="M 32 22 L 269 22 L 269 260 L 32 260 Z M 32 22 " clip-rule="nonzero"/></clipPath><clipPath id="1cc8e1d4b0"><path d="M 60.699219 0.226562 L 291.484375 51.253906 L 240.457031 282.042969 L 9.671875 231.015625 Z M 60.699219 0.226562 " clip-rule="nonzero"/></clipPath><clipPath id="feca76340c"><path d="M 176.089844 25.738281 C 112.363281 11.648438 49.273438 51.890625 35.183594 115.621094 C 21.09375 179.351562 61.335938 242.4375 125.066406 256.527344 C 188.792969 270.617188 251.882812 230.378906 265.972656 166.648438 C 280.0625 102.917969 239.820312 39.832031 176.089844 25.738281 Z M 176.089844 25.738281 " clip-rule="nonzero"/></clipPath><clipPath id="831ce22d4b"><path d="M 40 28 L 262 28 L 262 254 L 40 254 Z M 40 28 " clip-rule="nonzero"/></clipPath><clipPath id="2bc65da7cb"><path d="M 265.4375 249.90625 L 44.132812 257.863281 L 36.015625 32.070312 L 257.320312 24.113281 Z M 265.4375 249.90625 " clip-rule="nonzero"/></clipPath><clipPath id="1fc762d3df"><path d="M 265.4375 249.90625 L 44.132812 257.863281 L 36.015625 32.070312 L 257.320312 24.113281 Z M 265.4375 249.90625 " clip-rule="nonzero"/></clipPath><clipPath id="dfd79451cc"><path d="M 46 36 L 256 36 L 256 246 L 46 246 Z M 46 36 " clip-rule="nonzero"/></clipPath><clipPath id="dd1f89af06"><path d="M 34.515625 232.464844 L 59.242188 25.0625 L 266.640625 49.785156 L 241.917969 257.1875 Z M 34.515625 232.464844 " clip-rule="nonzero"/></clipPath><clipPath id="a2223e44fb"><path d="M 46.878906 128.761719 C 40.050781 186.035156 80.945312 237.996094 138.21875 244.824219 C 195.488281 251.652344 247.453125 210.757812 254.28125 153.488281 C 261.105469 96.214844 220.214844 44.25 162.941406 37.425781 C 105.667969 30.597656 53.707031 71.492188 46.878906 128.761719 Z M 46.878906 128.761719 " clip-rule="nonzero"/></clipPath></defs><g clip-path="url(#63b1a0500d)"><g clip-path="url(#1cc8e1d4b0)"><g clip-path="url(#feca76340c)"><path fill="#fdf9f7" d="M 60.699219 0.226562 L 291.484375 51.253906 L 240.457031 282.042969 L 9.671875 231.015625 Z M 60.699219 0.226562 " fill-opacity="1" fill-rule="nonzero"/></g></g></g><g clip-path="url(#831ce22d4b)"><g clip-path="url(#2bc65da7cb)"><g clip-path="url(#1fc762d3df)"><path fill="#0b0019" d="M 260.933594 132.558594 C 261.894531 151.476562 257.847656 169.394531 249.921875 186.472656 C 245.667969 195.632812 240.191406 204.042969 233.714844 211.832031 C 223.699219 223.871094 211.808594 233.542969 197.984375 240.84375 C 187.984375 246.121094 177.410156 249.882812 166.277344 251.800781 C 160.082031 252.871094 153.800781 253.917969 147.472656 253.582031 C 143.203125 253.355469 138.925781 253.28125 134.644531 252.902344 C 122.707031 251.839844 111.515625 248.425781 100.738281 243.425781 C 92.738281 239.714844 85.457031 234.855469 78.621094 229.289062 C 74.109375 225.613281 70.082031 221.472656 66.289062 217.085938 C 65.234375 215.867188 65.109375 214.398438 66.074219 213.632812 C 67.300781 212.660156 68.464844 212.953125 69.488281 214.046875 C 71.566406 216.265625 73.59375 218.527344 75.78125 220.648438 C 88.035156 232.578125 102.386719 240.828125 118.847656 245.414062 C 125.277344 247.203125 131.804688 248.363281 138.492188 248.792969 C 141.984375 249.015625 145.492188 249.261719 148.972656 249.257812 C 152.691406 249.253906 156.425781 248.730469 160.132812 248.242188 C 167.324219 247.292969 174.378906 245.664062 181.222656 243.238281 C 192.839844 239.117188 203.53125 233.320312 213.207031 225.617188 C 218.8125 221.152344 224.074219 216.347656 228.742188 210.929688 C 237.324219 200.964844 244.050781 189.855469 248.859375 177.601562 C 251.734375 170.277344 253.800781 162.746094 255.109375 154.988281 C 255.640625 151.851562 255.902344 148.695312 256.269531 145.550781 C 257.203125 137.609375 256.996094 129.652344 255.8125 121.835938 C 254.160156 110.914062 251.105469 100.3125 246.226562 90.304688 C 242.40625 82.476562 237.773438 75.1875 232.144531 68.550781 C 225.523438 60.742188 217.90625 54.074219 209.214844 48.601562 C 197.929688 41.496094 185.765625 36.789062 172.636719 34.480469 C 163.929688 32.945312 155.152344 32.320312 146.367188 33.164062 C 130.40625 34.707031 115.335938 39.3125 101.421875 47.402344 C 92.378906 52.660156 84.230469 59.046875 76.898438 66.558594 C 66.574219 77.136719 58.742188 89.285156 53.070312 102.867188 C 48.949219 112.753906 46.355469 123.066406 45.261719 133.710938 C 44.742188 138.746094 44.46875 143.832031 44.6875 148.902344 C 45.203125 160.941406 47.296875 172.675781 51.710938 183.941406 C 51.988281 184.648438 52.316406 185.351562 52.488281 186.085938 C 52.714844 187.046875 52.632812 188.132812 51.546875 188.398438 C 50.542969 188.644531 49.261719 189.304688 48.5 187.75 C 47.3125 185.324219 46.40625 182.78125 45.609375 180.21875 C 43.605469 173.816406 41.9375 167.324219 41.195312 160.628906 C 40.410156 153.613281 39.851562 146.539062 40.273438 139.511719 C 41.519531 118.695312 47.695312 99.394531 58.992188 81.804688 C 63.65625 74.542969 69.039062 67.820312 75.203125 61.789062 C 86.492188 50.75 99.398438 42.121094 114.144531 36.304688 C 121.1875 33.53125 128.425781 31.476562 135.839844 30.066406 C 143.632812 28.582031 151.566406 28.175781 159.4375 28.472656 C 173.40625 28.992188 186.835938 32.273438 199.550781 38.171875 C 207.917969 42.054688 215.652344 46.964844 222.71875 52.917969 C 239.996094 67.46875 251.375 85.765625 257.34375 107.46875 C 258.46875 111.570312 259.21875 115.785156 259.992188 119.972656 C 260.75 124.121094 260.746094 128.347656 260.933594 132.558594 Z M 260.933594 132.558594 " fill-opacity="1" fill-rule="nonzero"/></g></g></g><g clip-path="url(#dfd79451cc)"><g clip-path="url(#dd1f89af06)"><g clip-path="url(#a2223e44fb)"><path fill="#ef4136" d="M 34.515625 232.464844 L 59.242188 25.0625 L 266.640625 49.785156 L 241.917969 257.1875 Z M 34.515625 232.464844 " fill-opacity="1" fill-rule="nonzero"/></g></g></g><g fill="#0b0019" fill-opacity="1"><g transform="translate(110.893391, 140.976287)"><g><path d="M 21.15625 0.046875 C 16 0.046875 11.675781 -0.847656 8.1875 -2.640625 C 5.132812 -4.171875 2.929688 -6.0625 1.578125 -8.3125 C 1.035156 -9.3125 0.671875 -10.3125 0.484375 -11.3125 C 0.242188 -12.46875 0.328125 -13.628906 0.734375 -14.796875 C 1.242188 -16.390625 2.132812 -17.566406 3.40625 -18.328125 C 5.300781 -19.460938 7.53125 -20.03125 10.09375 -20.03125 C 10.632812 -20.03125 11.175781 -19.988281 11.71875 -19.90625 C 12.257812 -19.820312 12.488281 -19.941406 12.40625 -20.265625 C 12.4375 -19.296875 12.53125 -18.363281 12.6875 -17.46875 C 12.90625 -16.195312 13.378906 -14.804688 14.109375 -13.296875 C 14.835938 -11.785156 16.457031 -10.566406 18.96875 -9.640625 C 19.945312 -9.398438 20.835938 -9.28125 21.640625 -9.28125 C 22.753906 -9.28125 23.929688 -9.578125 25.171875 -10.171875 C 26.421875 -10.765625 27.3125 -11.65625 27.84375 -12.84375 C 28.363281 -13.789062 28.53125 -14.847656 28.34375 -16.015625 C 28.125 -17.066406 27.445312 -18.457031 26.3125 -20.1875 C 25.175781 -21.914062 21.890625 -24.195312 16.453125 -27.03125 C 8.722656 -31.03125 4.414062 -35.664062 3.53125 -40.9375 C 3.289062 -42.207031 3.265625 -43.503906 3.453125 -44.828125 C 3.878906 -47.859375 5.828125 -50.625 9.296875 -53.125 C 12.773438 -55.625 18.320312 -57.144531 25.9375 -57.6875 L 27.640625 -57.71875 C 30.671875 -57.71875 33.671875 -57.265625 36.640625 -56.359375 C 39.617188 -55.453125 42.039062 -54.066406 43.90625 -52.203125 C 45.039062 -51.066406 45.726562 -49.785156 45.96875 -48.359375 C 46.132812 -47.597656 46.148438 -46.8125 46.015625 -46 C 45.710938 -44.351562 45.015625 -43.148438 43.921875 -42.390625 C 42.828125 -41.640625 41.628906 -41.179688 40.328125 -41.015625 C 39.546875 -40.941406 38.816406 -40.90625 38.140625 -40.90625 C 37.597656 -40.90625 37.046875 -40.941406 36.484375 -41.015625 C 35.921875 -41.097656 35.71875 -40.953125 35.875 -40.578125 C 34.363281 -46.253906 31.175781 -49.195312 26.3125 -49.40625 L 25.625 -49.40625 C 21.625 -49.40625 19.328125 -47.867188 18.734375 -44.796875 C 18.597656 -44.117188 18.582031 -43.425781 18.6875 -42.71875 C 19.28125 -39.476562 22.644531 -36.128906 28.78125 -32.671875 C 33.1875 -30.210938 36.703125 -27.484375 39.328125 -24.484375 C 41.617188 -21.890625 42.984375 -19.210938 43.421875 -16.453125 C 43.492188 -16.128906 43.617188 -15.113281 43.796875 -13.40625 C 43.972656 -11.707031 42.789062 -9.382812 40.25 -6.4375 C 36.28125 -2.113281 29.914062 0.046875 21.15625 0.046875 Z M 21.15625 0.046875 "/></g></g></g><g fill="#0b0019" fill-opacity="1"><g transform="translate(150.609869, 140.976287)"><g><path d="M 24.15625 0.765625 C 19.664062 0.765625 14.679688 0.484375 9.203125 -0.078125 C 7.335938 -0.242188 5.789062 -0.847656 4.5625 -1.890625 C 3.332031 -2.929688 2.539062 -4.445312 2.1875 -6.4375 C 1.945312 -8.144531 2.144531 -10.554688 2.78125 -13.671875 C 3.414062 -16.796875 4.242188 -20.382812 5.265625 -24.4375 C 6.773438 -30.25 8.097656 -36.363281 9.234375 -42.78125 C 10.367188 -49.195312 10.640625 -54.835938 10.046875 -59.703125 C 11.585938 -59.648438 13.367188 -59.378906 15.390625 -58.890625 C 17.421875 -58.410156 19.046875 -57.832031 20.265625 -57.15625 C 21.484375 -56.476562 22.144531 -55.867188 22.25 -55.328125 C 22.894531 -51.328125 22.800781 -46.804688 21.96875 -41.765625 C 21.132812 -36.734375 20.066406 -31.632812 18.765625 -26.46875 C 17.984375 -23.175781 17.285156 -20 16.671875 -16.9375 C 16.066406 -13.882812 15.671875 -10.601562 15.484375 -7.09375 C 18.835938 -7.789062 21.753906 -8.550781 24.234375 -9.375 C 26.722656 -10.207031 29.019531 -11 31.125 -11.75 C 34.613281 -13.101562 36.679688 -13.78125 37.328125 -13.78125 C 37.222656 -13.78125 37.078125 -13.898438 36.890625 -14.140625 C 37.296875 -13.253906 37.578125 -12.3125 37.734375 -11.3125 C 37.953125 -10.175781 37.96875 -8.75 37.78125 -7.03125 C 37.59375 -5.3125 36.867188 -3.664062 35.609375 -2.09375 C 34.347656 -0.53125 32.625 0.351562 30.4375 0.5625 C 28.46875 0.695312 26.375 0.765625 24.15625 0.765625 Z M 24.15625 0.765625 "/></g></g></g><g fill="#0b0019" fill-opacity="1"><g transform="translate(77.454967, 176.312456)"><g><path d="M 9.09375 0.28125 C 7.820312 0.28125 6.453125 0.222656 4.984375 0.109375 C 4.660156 0.0859375 4.332031 0.0703125 4 0.0625 C 3.144531 0.0078125 2.460938 -0.191406 1.953125 -0.546875 C 1.441406 -0.898438 1.117188 -1.472656 0.984375 -2.265625 C 0.898438 -3.003906 0.984375 -4.035156 1.234375 -5.359375 C 1.484375 -6.679688 1.800781 -8.125 2.1875 -9.6875 C 2.519531 -11 2.8125 -12.28125 3.0625 -13.53125 C 3.3125 -14.78125 3.476562 -16.101562 3.5625 -17.5 C 2.75 -17.144531 2.265625 -16.898438 2.109375 -16.765625 C 1.679688 -17.296875 1.421875 -17.84375 1.328125 -18.40625 C 1.273438 -18.601562 1.28125 -18.914062 1.34375 -19.34375 C 1.414062 -19.769531 1.742188 -20.128906 2.328125 -20.421875 C 2.929688 -20.691406 3.75 -20.828125 4.78125 -20.828125 C 5.8125 -20.828125 7.210938 -20.738281 8.984375 -20.5625 C 10.835938 -20.375 12.222656 -20.28125 13.140625 -20.28125 C 14.109375 -20.28125 14.816406 -20.351562 15.265625 -20.5 C 15.304688 -20.40625 15.351562 -20.207031 15.40625 -19.90625 C 15.507812 -19.257812 15.347656 -18.644531 14.921875 -18.0625 C 14.492188 -17.488281 13.660156 -17.15625 12.421875 -17.0625 L 12.015625 -17.046875 C 11.222656 -17.046875 10.289062 -17.144531 9.21875 -17.34375 C 8.5625 -17.4375 7.332031 -17.59375 5.53125 -17.8125 C 6.894531 -17.039062 7.625 -16.535156 7.71875 -16.296875 C 7.757812 -16.160156 7.796875 -16.007812 7.828125 -15.84375 C 7.984375 -14.976562 7.78125 -13.332031 7.21875 -10.90625 C 8.34375 -10.914062 9.335938 -10.957031 10.203125 -11.03125 C 11.066406 -11.113281 12.019531 -11.238281 13.0625 -11.40625 C 13.113281 -11.289062 13.164062 -11.109375 13.21875 -10.859375 C 13.269531 -10.566406 13.242188 -10.242188 13.140625 -9.890625 C 13.046875 -9.546875 12.816406 -9.316406 12.453125 -9.203125 C 11.828125 -8.992188 11.203125 -8.890625 10.578125 -8.890625 L 9.984375 -8.890625 C 9.640625 -8.890625 9.078125 -8.941406 8.296875 -9.046875 L 6.828125 -9.1875 C 6.242188 -6.882812 5.863281 -4.65625 5.6875 -2.5 C 7.757812 -2.820312 9.578125 -3.195312 11.140625 -3.625 C 12.734375 -4.007812 13.6875 -4.203125 14 -4.203125 C 14.039062 -4.203125 14.03125 -4.242188 13.96875 -4.328125 C 14.070312 -4.046875 14.148438 -3.75 14.203125 -3.4375 C 14.328125 -2.675781 14.1875 -1.910156 13.78125 -1.140625 C 13.375 -0.378906 12.570312 0.0664062 11.375 0.203125 C 10.65625 0.253906 9.894531 0.28125 9.09375 0.28125 Z M 9.09375 0.28125 "/></g></g></g><g fill="#0b0019" fill-opacity="1"><g transform="translate(89.974094, 176.312456)"><g><path d="M 12.359375 0 C 11.984375 0 11.457031 -0.09375 10.78125 -0.28125 C 10.113281 -0.46875 9.664062 -1.15625 9.4375 -2.34375 C 9.34375 -3.039062 9.363281 -3.765625 9.5 -4.515625 C 9.632812 -5.273438 9.820312 -6.082031 10.0625 -6.9375 C 10.382812 -8.03125 10.671875 -9.253906 10.921875 -10.609375 C 10.921875 -10.710938 10.914062 -10.8125 10.90625 -10.90625 C 10.832031 -11.28125 10.609375 -11.46875 10.234375 -11.46875 C 10.117188 -11.46875 9.921875 -11.414062 9.640625 -11.3125 C 9.359375 -11.207031 8.910156 -10.875 8.296875 -10.3125 C 7.679688 -9.75 7.078125 -9.035156 6.484375 -8.171875 C 5.898438 -7.304688 5.453125 -6.34375 5.140625 -5.28125 C 4.773438 -3.976562 4.691406 -2.769531 4.890625 -1.65625 C 4.992188 -1.082031 5.117188 -0.675781 5.265625 -0.4375 C 4.578125 -0.15625 3.851562 -0.015625 3.09375 -0.015625 C 2.707031 -0.015625 2.179688 -0.101562 1.515625 -0.28125 C 0.847656 -0.46875 0.394531 -1.15625 0.15625 -2.34375 C 0.0507812 -3.0625 0.101562 -3.945312 0.3125 -5 C 0.519531 -6.050781 0.773438 -7.171875 1.078125 -8.359375 C 1.421875 -9.640625 1.707031 -10.890625 1.9375 -12.109375 C 2.164062 -13.328125 2.222656 -14.265625 2.109375 -14.921875 C 3.054688 -14.867188 3.953125 -14.695312 4.796875 -14.40625 C 5.640625 -14.113281 6.148438 -13.773438 6.328125 -13.390625 C 6.367188 -13.234375 6.40625 -13.066406 6.4375 -12.890625 C 6.53125 -12.410156 6.484375 -11.46875 6.296875 -10.0625 C 7.609375 -11.425781 8.675781 -12.390625 9.5 -12.953125 C 10.320312 -13.515625 11.113281 -13.984375 11.875 -14.359375 C 12.644531 -14.734375 13.359375 -14.921875 14.015625 -14.921875 C 14.148438 -14.921875 14.425781 -14.894531 14.84375 -14.84375 C 15.257812 -14.789062 15.597656 -14.53125 15.859375 -14.0625 C 15.941406 -13.875 16.007812 -13.65625 16.0625 -13.40625 C 16.144531 -12.894531 16.109375 -12.191406 15.953125 -11.296875 C 15.796875 -10.398438 15.539062 -9.3125 15.1875 -8.03125 C 14.332031 -5.007812 14.023438 -2.820312 14.265625 -1.46875 C 14.347656 -0.96875 14.4375 -0.625 14.53125 -0.4375 C 13.851562 -0.144531 13.128906 0 12.359375 0 Z M 12.359375 0 "/></g></g></g><g fill="#0b0019" fill-opacity="1"><g transform="translate(105.269534, 176.312456)"><g><path d="M 6.453125 0.703125 C 5.378906 0.703125 4.429688 0.316406 3.609375 -0.453125 C 2.984375 -0.992188 2.570312 -1.78125 2.375 -2.8125 C 2.257812 -3.613281 2.296875 -4.5 2.484375 -5.46875 C 2.679688 -6.445312 2.953125 -7.503906 3.296875 -8.640625 C 3.554688 -9.546875 3.84375 -10.660156 4.15625 -11.984375 C 3.125 -11.984375 2.242188 -11.941406 1.515625 -11.859375 C 1.515625 -11.859375 1.5 -11.957031 1.46875 -12.15625 C 1.445312 -12.25 1.429688 -12.421875 1.421875 -12.671875 C 1.421875 -12.929688 1.535156 -13.226562 1.765625 -13.5625 C 2.003906 -13.90625 2.394531 -14.109375 2.9375 -14.171875 L 3.015625 -14.1875 C 3.484375 -14.21875 4 -14.234375 4.5625 -14.234375 C 4.832031 -15.984375 4.867188 -17.613281 4.671875 -19.125 C 5.648438 -19.070312 6.597656 -18.878906 7.515625 -18.546875 C 8.429688 -18.222656 8.941406 -17.878906 9.046875 -17.515625 C 9.234375 -16.460938 9.269531 -15.269531 9.15625 -13.9375 C 10.175781 -13.9375 11.070312 -14.003906 11.84375 -14.140625 C 11.925781 -14.035156 11.988281 -13.847656 12.03125 -13.578125 C 12.207031 -12.585938 11.847656 -12.007812 10.953125 -11.84375 C 10.242188 -11.769531 9.507812 -11.734375 8.75 -11.734375 C 8.519531 -10.835938 8.3125 -10.039062 8.125 -9.34375 C 7.78125 -8.195312 7.515625 -7.113281 7.328125 -6.09375 C 7.160156 -5.15625 7.144531 -4.273438 7.28125 -3.453125 C 7.4375 -2.578125 7.832031 -2.03125 8.46875 -1.8125 C 8.75 -1.695312 9.046875 -1.640625 9.359375 -1.640625 C 9.535156 -1.640625 9.796875 -1.675781 10.140625 -1.75 C 10.492188 -1.820312 10.785156 -1.945312 11.015625 -2.125 L 10.921875 -2.125 C 10.859375 -2.125 10.816406 -2.128906 10.796875 -2.140625 C 10.773438 -2.160156 10.769531 -2.160156 10.78125 -2.140625 C 10.78125 -2.117188 10.78125 -2.0625 10.78125 -1.96875 C 10.78125 -1.882812 10.734375 -1.710938 10.640625 -1.453125 C 10.390625 -0.867188 9.984375 -0.414062 9.421875 -0.09375 C 8.535156 0.4375 7.546875 0.703125 6.453125 0.703125 Z M 6.453125 0.703125 "/></g></g></g><g fill="#0b0019" fill-opacity="1"><g transform="translate(117.876334, 176.312456)"><g><path d="M 7.265625 -0.09375 C 5.804688 -0.09375 4.550781 -0.375 3.5 -0.9375 C 2.445312 -1.507812 1.660156 -2.328125 1.140625 -3.390625 C 0.898438 -3.898438 0.726562 -4.445312 0.625 -5.03125 C 0.507812 -5.65625 0.488281 -6.328125 0.5625 -7.046875 C 0.65625 -8.085938 0.925781 -9.078125 1.375 -10.015625 C 1.820312 -10.953125 2.425781 -11.785156 3.1875 -12.515625 C 3.945312 -13.242188 4.851562 -13.820312 5.90625 -14.25 C 6.957031 -14.675781 8.128906 -14.890625 9.421875 -14.890625 L 9.703125 -14.890625 C 10.816406 -14.890625 11.789062 -14.660156 12.625 -14.203125 C 13.457031 -13.742188 14.054688 -13.117188 14.421875 -12.328125 C 14.546875 -12.066406 14.632812 -11.785156 14.6875 -11.484375 C 14.78125 -10.941406 14.742188 -10.363281 14.578125 -9.75 C 14.265625 -8.84375 13.632812 -8.0625 12.6875 -7.40625 C 11.75 -6.75 10.648438 -6.257812 9.390625 -5.9375 C 8.304688 -5.644531 7.253906 -5.5 6.234375 -5.5 L 5.25 -5.515625 C 5.726562 -4.535156 6.285156 -3.867188 6.921875 -3.515625 C 7.554688 -3.160156 8.320312 -2.984375 9.21875 -2.984375 C 10.320312 -3.015625 11.253906 -3.210938 12.015625 -3.578125 C 12.785156 -3.953125 13.390625 -4.367188 13.828125 -4.828125 C 13.773438 -4.835938 13.757812 -4.78125 13.78125 -4.65625 C 13.789062 -4.613281 13.800781 -4.484375 13.8125 -4.265625 C 13.820312 -4.054688 13.695312 -3.707031 13.4375 -3.21875 C 13.175781 -2.738281 12.789062 -2.257812 12.28125 -1.78125 C 11.769531 -1.300781 11.140625 -0.898438 10.390625 -0.578125 C 9.648438 -0.265625 8.796875 -0.109375 7.828125 -0.109375 Z M 5.109375 -7.484375 C 6.796875 -7.671875 8.117188 -7.976562 9.078125 -8.40625 C 10.460938 -9.019531 11.054688 -9.898438 10.859375 -11.046875 C 10.691406 -12.066406 10.039062 -12.578125 8.90625 -12.578125 C 8.125 -12.523438 7.484375 -12.234375 6.984375 -11.703125 C 6.484375 -11.179688 6.09375 -10.582031 5.8125 -9.90625 C 5.539062 -9.226562 5.304688 -8.421875 5.109375 -7.484375 Z M 5.109375 -7.484375 "/></g></g></g><g fill="#0b0019" fill-opacity="1"><g transform="translate(131.885903, 176.312456)"><g><path d="M 3.171875 -0.015625 C 2.773438 -0.015625 2.238281 -0.101562 1.5625 -0.28125 C 0.894531 -0.46875 0.445312 -1.15625 0.21875 -2.34375 C 0.113281 -3.0625 0.164062 -3.945312 0.375 -5 C 0.582031 -6.050781 0.835938 -7.171875 1.140625 -8.359375 C 1.492188 -9.640625 1.78125 -10.890625 2 -12.109375 C 2.226562 -13.328125 2.285156 -14.265625 2.171875 -14.921875 C 3.128906 -14.867188 4.03125 -14.679688 4.875 -14.359375 C 5.726562 -14.035156 6.351562 -13.46875 6.75 -12.65625 C 7.6875 -14.144531 8.738281 -14.890625 9.90625 -14.890625 L 10.125 -14.890625 C 10.9375 -14.890625 11.613281 -14.691406 12.15625 -14.296875 C 12.707031 -13.898438 13.078125 -13.320312 13.265625 -12.5625 L 13.265625 -12.53125 C 13.359375 -11.925781 13.257812 -11.367188 12.96875 -10.859375 C 12.6875 -10.347656 12.3125 -9.90625 11.84375 -9.53125 C 11.375 -9.164062 10.953125 -8.90625 10.578125 -8.75 C 10.378906 -8.6875 10.25 -8.65625 10.1875 -8.65625 C 10.300781 -8.65625 10.382812 -8.570312 10.4375 -8.40625 L 10.40625 -8.625 C 10.320312 -9.113281 10.132812 -9.597656 9.84375 -10.078125 C 9.40625 -10.785156 8.828125 -11.140625 8.109375 -11.140625 C 7.378906 -11.078125 6.785156 -10.566406 6.328125 -9.609375 C 5.878906 -8.648438 5.546875 -7.535156 5.328125 -6.265625 C 5.117188 -5.003906 5.023438 -3.804688 5.046875 -2.671875 C 5.046875 -2.078125 5.085938 -1.566406 5.171875 -1.140625 C 5.234375 -0.722656 5.285156 -0.488281 5.328125 -0.4375 C 4.648438 -0.15625 3.929688 -0.015625 3.171875 -0.015625 Z M 3.171875 -0.015625 "/></g></g></g><g fill="#0b0019" fill-opacity="1"><g transform="translate(143.352953, 176.312456)"><g><path d="M 1.421875 5.84375 C 1.023438 5.84375 0.492188 5.75 -0.171875 5.5625 C -0.835938 5.375 -1.289062 4.695312 -1.53125 3.53125 C -1.601562 2.914062 -1.535156 2.039062 -1.328125 0.90625 C -1.128906 -0.21875 -0.859375 -1.503906 -0.515625 -2.953125 C -0.0234375 -5.054688 0.398438 -7.257812 0.765625 -9.5625 C 1.140625 -11.863281 1.222656 -13.894531 1.015625 -15.65625 C 1.578125 -15.632812 2.21875 -15.535156 2.9375 -15.359375 C 3.664062 -15.191406 4.25 -14.984375 4.6875 -14.734375 C 5.132812 -14.484375 5.378906 -14.257812 5.421875 -14.0625 C 5.472656 -13.726562 5.523438 -13.03125 5.578125 -11.96875 C 7.109375 -13.914062 8.625 -14.890625 10.125 -14.890625 C 11.863281 -14.890625 13.210938 -14.265625 14.171875 -13.015625 C 14.796875 -12.234375 15.195312 -11.3125 15.375 -10.25 C 15.5 -9.550781 15.523438 -8.796875 15.453125 -7.984375 C 15.367188 -6.929688 15.140625 -5.9375 14.765625 -5 C 14.390625 -4.070312 13.882812 -3.238281 13.25 -2.5 C 12.613281 -1.757812 11.859375 -1.175781 10.984375 -0.75 C 10.109375 -0.320312 9.054688 -0.109375 7.828125 -0.109375 C 7.160156 -0.109375 6.566406 -0.304688 6.046875 -0.703125 C 5.523438 -1.109375 4.9375 -2.023438 4.28125 -3.453125 C 3.414062 0.492188 3.09375 3.132812 3.3125 4.46875 C 3.394531 4.957031 3.476562 5.273438 3.5625 5.421875 C 2.894531 5.703125 2.179688 5.84375 1.421875 5.84375 Z M 6.890625 -2.40625 C 7.554688 -2.457031 8.15625 -2.742188 8.6875 -3.265625 C 9.226562 -3.796875 9.675781 -4.40625 10.03125 -5.09375 C 10.394531 -5.78125 10.65625 -6.40625 10.8125 -6.96875 C 10.976562 -7.53125 11.078125 -8.117188 11.109375 -8.734375 C 11.148438 -9.359375 11.128906 -9.941406 11.046875 -10.484375 C 10.921875 -11.066406 10.710938 -11.5625 10.421875 -11.96875 C 10.140625 -12.375 9.722656 -12.578125 9.171875 -12.578125 C 8.367188 -12.546875 7.679688 -12.257812 7.109375 -11.71875 C 6.546875 -11.175781 6.097656 -10.519531 5.765625 -9.75 C 5.441406 -8.976562 5.210938 -8.207031 5.078125 -7.4375 C 4.878906 -6.21875 4.847656 -5.207031 4.984375 -4.40625 C 5.015625 -4.269531 5.0625 -4.054688 5.125 -3.765625 C 5.195312 -3.484375 5.378906 -3.1875 5.671875 -2.875 C 5.960938 -2.5625 6.367188 -2.40625 6.890625 -2.40625 Z M 6.890625 -2.40625 "/></g></g></g><g fill="#0b0019" fill-opacity="1"><g transform="translate(158.589945, 176.312456)"><g><path d="M 3.171875 -0.015625 C 2.773438 -0.015625 2.238281 -0.101562 1.5625 -0.28125 C 0.894531 -0.46875 0.445312 -1.15625 0.21875 -2.34375 C 0.113281 -3.0625 0.164062 -3.945312 0.375 -5 C 0.582031 -6.050781 0.835938 -7.171875 1.140625 -8.359375 C 1.492188 -9.640625 1.78125 -10.890625 2 -12.109375 C 2.226562 -13.328125 2.285156 -14.265625 2.171875 -14.921875 C 3.128906 -14.867188 4.03125 -14.679688 4.875 -14.359375 C 5.726562 -14.035156 6.351562 -13.46875 6.75 -12.65625 C 7.6875 -14.144531 8.738281 -14.890625 9.90625 -14.890625 L 10.125 -14.890625 C 10.9375 -14.890625 11.613281 -14.691406 12.15625 -14.296875 C 12.707031 -13.898438 13.078125 -13.320312 13.265625 -12.5625 L 13.265625 -12.53125 C 13.359375 -11.925781 13.257812 -11.367188 12.96875 -10.859375 C 12.6875 -10.347656 12.3125 -9.90625 11.84375 -9.53125 C 11.375 -9.164062 10.953125 -8.90625 10.578125 -8.75 C 10.378906 -8.6875 10.25 -8.65625 10.1875 -8.65625 C 10.300781 -8.65625 10.382812 -8.570312 10.4375 -8.40625 L 10.40625 -8.625 C 10.320312 -9.113281 10.132812 -9.597656 9.84375 -10.078125 C 9.40625 -10.785156 8.828125 -11.140625 8.109375 -11.140625 C 7.378906 -11.078125 6.785156 -10.566406 6.328125 -9.609375 C 5.878906 -8.648438 5.546875 -7.535156 5.328125 -6.265625 C 5.117188 -5.003906 5.023438 -3.804688 5.046875 -2.671875 C 5.046875 -2.078125 5.085938 -1.566406 5.171875 -1.140625 C 5.234375 -0.722656 5.285156 -0.488281 5.328125 -0.4375 C 4.648438 -0.15625 3.929688 -0.015625 3.171875 -0.015625 Z M 3.171875 -0.015625 "/></g></g></g><g fill="#0b0019" fill-opacity="1"><g transform="translate(170.056994, 176.312456)"><g><path d="M 3.171875 -0.015625 C 2.773438 -0.015625 2.238281 -0.101562 1.5625 -0.28125 C 0.894531 -0.46875 0.445312 -1.15625 0.21875 -2.34375 C 0.113281 -3.0625 0.164062 -3.945312 0.375 -5 C 0.582031 -6.050781 0.835938 -7.171875 1.140625 -8.359375 C 1.492188 -9.640625 1.78125 -10.890625 2 -12.109375 C 2.226562 -13.328125 2.285156 -14.265625 2.171875 -14.921875 C 3.117188 -14.867188 4.015625 -14.695312 4.859375 -14.40625 C 5.703125 -14.113281 6.210938 -13.773438 6.390625 -13.390625 C 6.441406 -13.234375 6.484375 -13.066406 6.515625 -12.890625 C 6.609375 -12.359375 6.585938 -11.671875 6.453125 -10.828125 C 6.316406 -9.984375 6.101562 -9 5.8125 -7.875 C 5.03125 -5.019531 4.757812 -2.925781 5 -1.59375 C 5.082031 -1.050781 5.1875 -0.664062 5.3125 -0.4375 C 4.644531 -0.15625 3.929688 -0.015625 3.171875 -0.015625 Z M 5.234375 -16.75 C 4.785156 -16.75 4.320312 -16.867188 3.84375 -17.109375 C 3.070312 -17.535156 2.628906 -18.082031 2.515625 -18.75 C 2.429688 -19.257812 2.554688 -19.8125 2.890625 -20.40625 C 3.304688 -21.070312 3.835938 -21.492188 4.484375 -21.671875 C 4.691406 -21.710938 4.90625 -21.734375 5.125 -21.734375 C 5.570312 -21.734375 6.035156 -21.613281 6.515625 -21.375 C 7.273438 -20.976562 7.707031 -20.453125 7.8125 -19.796875 C 7.90625 -19.273438 7.78125 -18.710938 7.4375 -18.109375 C 7.03125 -17.441406 6.5 -17.015625 5.84375 -16.828125 C 5.644531 -16.773438 5.441406 -16.75 5.234375 -16.75 Z M 5.234375 -16.75 "/></g></g></g><g fill="#0b0019" fill-opacity="1"><g transform="translate(174.700157, 176.312456)"><g><path d="M 5.765625 0.046875 C 4.316406 0.046875 3.066406 -0.148438 2.015625 -0.546875 C 1.097656 -0.878906 0.425781 -1.328125 0 -1.890625 C -0.195312 -2.140625 -0.320312 -2.40625 -0.375 -2.6875 C -0.425781 -3 -0.394531 -3.34375 -0.28125 -3.71875 C -0.113281 -4.175781 0.15625 -4.519531 0.53125 -4.75 C 1.082031 -5.082031 1.738281 -5.25 2.5 -5.25 C 2.675781 -5.25 2.835938 -5.234375 2.984375 -5.203125 C 3.140625 -5.179688 3.207031 -5.25 3.1875 -5.40625 C 3.195312 -5.050781 3.222656 -4.710938 3.265625 -4.390625 C 3.304688 -4.148438 3.394531 -3.820312 3.53125 -3.40625 C 3.675781 -3 4.09375 -2.640625 4.78125 -2.328125 C 5.09375 -2.203125 5.382812 -2.140625 5.65625 -2.140625 C 5.914062 -2.140625 6.191406 -2.21875 6.484375 -2.375 C 6.785156 -2.53125 7.03125 -2.78125 7.21875 -3.125 C 7.351562 -3.425781 7.390625 -3.757812 7.328125 -4.125 C 7.296875 -4.445312 7.09375 -4.789062 6.71875 -5.15625 C 6.34375 -5.53125 5.703125 -5.910156 4.796875 -6.296875 C 3.296875 -6.890625 2.238281 -7.695312 1.625 -8.71875 C 1.382812 -9.132812 1.222656 -9.554688 1.140625 -9.984375 C 1.035156 -10.585938 1.109375 -11.210938 1.359375 -11.859375 C 2.046875 -13.640625 4.132812 -14.640625 7.625 -14.859375 L 8.328125 -14.875 C 9.734375 -14.875 10.835938 -14.617188 11.640625 -14.109375 C 12.242188 -13.734375 12.59375 -13.269531 12.6875 -12.71875 C 12.726562 -12.476562 12.722656 -12.222656 12.671875 -11.953125 C 12.566406 -11.484375 12.367188 -11.132812 12.078125 -10.90625 C 11.566406 -10.476562 10.945312 -10.265625 10.21875 -10.265625 C 10.019531 -10.265625 9.941406 -10.195312 9.984375 -10.0625 C 9.984375 -10.289062 9.96875 -10.53125 9.9375 -10.78125 C 9.863281 -11.164062 9.695312 -11.59375 9.4375 -12.0625 C 9.175781 -12.539062 8.535156 -12.820312 7.515625 -12.90625 L 7.265625 -12.921875 C 6.335938 -12.921875 5.742188 -12.503906 5.484375 -11.671875 C 5.460938 -11.429688 5.460938 -11.210938 5.484375 -11.015625 C 5.578125 -10.523438 5.878906 -10.097656 6.390625 -9.734375 C 6.898438 -9.378906 7.457031 -9.085938 8.0625 -8.859375 C 10.726562 -7.703125 12.191406 -6.363281 12.453125 -4.84375 C 12.585938 -4.125 12.429688 -3.398438 11.984375 -2.671875 C 10.804688 -0.859375 8.734375 0.046875 5.765625 0.046875 Z M 5.765625 0.046875 "/></g></g></g><g fill="#0b0019" fill-opacity="1"><g transform="translate(186.313323, 176.312456)"><g><path d="M 7.265625 -0.09375 C 5.804688 -0.09375 4.550781 -0.375 3.5 -0.9375 C 2.445312 -1.507812 1.660156 -2.328125 1.140625 -3.390625 C 0.898438 -3.898438 0.726562 -4.445312 0.625 -5.03125 C 0.507812 -5.65625 0.488281 -6.328125 0.5625 -7.046875 C 0.65625 -8.085938 0.925781 -9.078125 1.375 -10.015625 C 1.820312 -10.953125 2.425781 -11.785156 3.1875 -12.515625 C 3.945312 -13.242188 4.851562 -13.820312 5.90625 -14.25 C 6.957031 -14.675781 8.128906 -14.890625 9.421875 -14.890625 L 9.703125 -14.890625 C 10.816406 -14.890625 11.789062 -14.660156 12.625 -14.203125 C 13.457031 -13.742188 14.054688 -13.117188 14.421875 -12.328125 C 14.546875 -12.066406 14.632812 -11.785156 14.6875 -11.484375 C 14.78125 -10.941406 14.742188 -10.363281 14.578125 -9.75 C 14.265625 -8.84375 13.632812 -8.0625 12.6875 -7.40625 C 11.75 -6.75 10.648438 -6.257812 9.390625 -5.9375 C 8.304688 -5.644531 7.253906 -5.5 6.234375 -5.5 L 5.25 -5.515625 C 5.726562 -4.535156 6.285156 -3.867188 6.921875 -3.515625 C 7.554688 -3.160156 8.320312 -2.984375 9.21875 -2.984375 C 10.320312 -3.015625 11.253906 -3.210938 12.015625 -3.578125 C 12.785156 -3.953125 13.390625 -4.367188 13.828125 -4.828125 C 13.773438 -4.835938 13.757812 -4.78125 13.78125 -4.65625 C 13.789062 -4.613281 13.800781 -4.484375 13.8125 -4.265625 C 13.820312 -4.054688 13.695312 -3.707031 13.4375 -3.21875 C 13.175781 -2.738281 12.789062 -2.257812 12.28125 -1.78125 C 11.769531 -1.300781 11.140625 -0.898438 10.390625 -0.578125 C 9.648438 -0.265625 8.796875 -0.109375 7.828125 -0.109375 Z M 5.109375 -7.484375 C 6.796875 -7.671875 8.117188 -7.976562 9.078125 -8.40625 C 10.460938 -9.019531 11.054688 -9.898438 10.859375 -11.046875 C 10.691406 -12.066406 10.039062 -12.578125 8.90625 -12.578125 C 8.125 -12.523438 7.484375 -12.234375 6.984375 -11.703125 C 6.484375 -11.179688 6.09375 -10.582031 5.8125 -9.90625 C 5.539062 -9.226562 5.304688 -8.421875 5.109375 -7.484375 Z M 5.109375 -7.484375 "/></g></g></g><g fill="#0b0019" fill-opacity="1"><g transform="translate(200.322886, 176.312456)"><g><path d="M 5.765625 0.046875 C 4.316406 0.046875 3.066406 -0.148438 2.015625 -0.546875 C 1.097656 -0.878906 0.425781 -1.328125 0 -1.890625 C -0.195312 -2.140625 -0.320312 -2.40625 -0.375 -2.6875 C -0.425781 -3 -0.394531 -3.34375 -0.28125 -3.71875 C -0.113281 -4.175781 0.15625 -4.519531 0.53125 -4.75 C 1.082031 -5.082031 1.738281 -5.25 2.5 -5.25 C 2.675781 -5.25 2.835938 -5.234375 2.984375 -5.203125 C 3.140625 -5.179688 3.207031 -5.25 3.1875 -5.40625 C 3.195312 -5.050781 3.222656 -4.710938 3.265625 -4.390625 C 3.304688 -4.148438 3.394531 -3.820312 3.53125 -3.40625 C 3.675781 -3 4.09375 -2.640625 4.78125 -2.328125 C 5.09375 -2.203125 5.382812 -2.140625 5.65625 -2.140625 C 5.914062 -2.140625 6.191406 -2.21875 6.484375 -2.375 C 6.785156 -2.53125 7.03125 -2.78125 7.21875 -3.125 C 7.351562 -3.425781 7.390625 -3.757812 7.328125 -4.125 C 7.296875 -4.445312 7.09375 -4.789062 6.71875 -5.15625 C 6.34375 -5.53125 5.703125 -5.910156 4.796875 -6.296875 C 3.296875 -6.890625 2.238281 -7.695312 1.625 -8.71875 C 1.382812 -9.132812 1.222656 -9.554688 1.140625 -9.984375 C 1.035156 -10.585938 1.109375 -11.210938 1.359375 -11.859375 C 2.046875 -13.640625 4.132812 -14.640625 7.625 -14.859375 L 8.328125 -14.875 C 9.734375 -14.875 10.835938 -14.617188 11.640625 -14.109375 C 12.242188 -13.734375 12.59375 -13.269531 12.6875 -12.71875 C 12.726562 -12.476562 12.722656 -12.222656 12.671875 -11.953125 C 12.566406 -11.484375 12.367188 -11.132812 12.078125 -10.90625 C 11.566406 -10.476562 10.945312 -10.265625 10.21875 -10.265625 C 10.019531 -10.265625 9.941406 -10.195312 9.984375 -10.0625 C 9.984375 -10.289062 9.96875 -10.53125 9.9375 -10.78125 C 9.863281 -11.164062 9.695312 -11.59375 9.4375 -12.0625 C 9.175781 -12.539062 8.535156 -12.820312 7.515625 -12.90625 L 7.265625 -12.921875 C 6.335938 -12.921875 5.742188 -12.503906 5.484375 -11.671875 C 5.460938 -11.429688 5.460938 -11.210938 5.484375 -11.015625 C 5.578125 -10.523438 5.878906 -10.097656 6.390625 -9.734375 C 6.898438 -9.378906 7.457031 -9.085938 8.0625 -8.859375 C 10.726562 -7.703125 12.191406 -6.363281 12.453125 -4.84375 C 12.585938 -4.125 12.429688 -3.398438 11.984375 -2.671875 C 10.804688 -0.859375 8.734375 0.046875 5.765625 0.046875 Z M 5.765625 0.046875 "/></g></g></g><g fill="#0b0019" fill-opacity="1"><g transform="translate(211.936051, 176.312456)"><g><path d="M 5.765625 0.046875 C 4.316406 0.046875 3.066406 -0.148438 2.015625 -0.546875 C 1.097656 -0.878906 0.425781 -1.328125 0 -1.890625 C -0.195312 -2.140625 -0.320312 -2.40625 -0.375 -2.6875 C -0.425781 -3 -0.394531 -3.34375 -0.28125 -3.71875 C -0.113281 -4.175781 0.15625 -4.519531 0.53125 -4.75 C 1.082031 -5.082031 1.738281 -5.25 2.5 -5.25 C 2.675781 -5.25 2.835938 -5.234375 2.984375 -5.203125 C 3.140625 -5.179688 3.207031 -5.25 3.1875 -5.40625 C 3.195312 -5.050781 3.222656 -4.710938 3.265625 -4.390625 C 3.304688 -4.148438 3.394531 -3.820312 3.53125 -3.40625 C 3.675781 -3 4.09375 -2.640625 4.78125 -2.328125 C 5.09375 -2.203125 5.382812 -2.140625 5.65625 -2.140625 C 5.914062 -2.140625 6.191406 -2.21875 6.484375 -2.375 C 6.785156 -2.53125 7.03125 -2.78125 7.21875 -3.125 C 7.351562 -3.425781 7.390625 -3.757812 7.328125 -4.125 C 7.296875 -4.445312 7.09375 -4.789062 6.71875 -5.15625 C 6.34375 -5.53125 5.703125 -5.910156 4.796875 -6.296875 C 3.296875 -6.890625 2.238281 -7.695312 1.625 -8.71875 C 1.382812 -9.132812 1.222656 -9.554688 1.140625 -9.984375 C 1.035156 -10.585938 1.109375 -11.210938 1.359375 -11.859375 C 2.046875 -13.640625 4.132812 -14.640625 7.625 -14.859375 L 8.328125 -14.875 C 9.734375 -14.875 10.835938 -14.617188 11.640625 -14.109375 C 12.242188 -13.734375 12.59375 -13.269531 12.6875 -12.71875 C 12.726562 -12.476562 12.722656 -12.222656 12.671875 -11.953125 C 12.566406 -11.484375 12.367188 -11.132812 12.078125 -10.90625 C 11.566406 -10.476562 10.945312 -10.265625 10.21875 -10.265625 C 10.019531 -10.265625 9.941406 -10.195312 9.984375 -10.0625 C 9.984375 -10.289062 9.96875 -10.53125 9.9375 -10.78125 C 9.863281 -11.164062 9.695312 -11.59375 9.4375 -12.0625 C 9.175781 -12.539062 8.535156 -12.820312 7.515625 -12.90625 L 7.265625 -12.921875 C 6.335938 -12.921875 5.742188 -12.503906 5.484375 -11.671875 C 5.460938 -11.429688 5.460938 -11.210938 5.484375 -11.015625 C 5.578125 -10.523438 5.878906 -10.097656 6.390625 -9.734375 C 6.898438 -9.378906 7.457031 -9.085938 8.0625 -8.859375 C 10.726562 -7.703125 12.191406 -6.363281 12.453125 -4.84375 C 12.585938 -4.125 12.429688 -3.398438 11.984375 -2.671875 C 10.804688 -0.859375 8.734375 0.046875 5.765625 0.046875 Z M 5.765625 0.046875 "/></g></g></g></svg>